<svg width="820" height="312" viewBox="0 0 820 312" fill="none" xmlns="http://www.w3.org/2000/svg">
<rect width="820" height="312" fill="white"/>
<path d="M286.918 111.688C290.758 111.688 294.022 112.232 296.71 113.32C299.398 114.408 302.022 115.944 304.582 117.928C305.222 118.504 305.83 118.792 306.406 118.792C307.686 118.792 308.518 116.872 308.902 113.032H311.11C310.854 117.576 310.726 125.576 310.726 137.032H308.518C308.07 131.912 307.238 127.88 306.022 124.936C304.806 121.992 302.694 119.528 299.686 117.544C296.678 115.624 293.702 114.664 290.758 114.664C284.102 114.664 279.43 117.864 276.742 124.264C274.054 130.664 272.71 138.312 272.71 147.208C272.71 156.104 274.054 163.752 276.742 170.152C279.43 176.552 284.102 179.752 290.758 179.752C293.702 179.752 296.678 178.792 299.686 176.872C302.694 175.016 304.806 172.52 306.022 169.384C307.238 166.248 308.07 161.8 308.518 156.04H310.726C310.726 168.008 310.854 176.328 311.11 181H308.902C308.71 178.952 308.422 177.512 308.038 176.68C307.718 175.784 307.238 175.336 306.598 175.336C306.086 175.336 305.414 175.592 304.582 176.104C301.702 178.152 298.95 179.72 296.326 180.808C293.702 181.832 290.534 182.344 286.822 182.344C279.59 182.344 273.254 180.968 267.814 178.216C262.374 175.464 258.15 171.496 255.142 166.312C252.134 161.064 250.63 154.824 250.63 147.592C250.63 140.552 252.166 134.312 255.238 128.872C258.31 123.432 262.598 119.208 268.102 116.2C273.606 113.192 279.878 111.688 286.918 111.688ZM329.522 181.672C325.426 181.672 322.322 180.584 320.21 178.408C318.162 176.168 317.138 173.384 317.138 170.056C317.138 167.176 317.874 164.808 319.346 162.952C320.882 161.032 322.674 159.56 324.722 158.536C326.77 157.512 329.426 156.456 332.69 155.368C336.146 154.216 338.674 153.16 340.274 152.2C341.874 151.24 342.674 149.896 342.674 148.168V139.624C342.674 137.576 342.162 135.752 341.138 134.152C340.114 132.552 338.354 131.752 335.858 131.752C333.874 131.752 332.082 132.296 330.482 133.384C332.658 134.152 334.258 135.304 335.282 136.84C336.37 138.312 336.914 139.976 336.914 141.832C336.914 144.328 336.018 146.344 334.226 147.88C332.498 149.352 330.386 150.088 327.89 150.088C325.394 150.088 323.41 149.32 321.938 147.784C320.53 146.184 319.826 144.168 319.826 141.736C319.826 139.816 320.306 138.152 321.266 136.744C322.226 135.336 323.73 134.056 325.778 132.904C329.362 130.856 334.482 129.832 341.138 129.832C344.658 129.832 347.698 130.184 350.258 130.888C352.818 131.528 354.994 132.776 356.786 134.632C358.066 135.976 358.898 137.672 359.282 139.72C359.73 141.704 359.954 144.488 359.954 148.072V173.8C359.954 175.4 360.05 176.488 360.242 177.064C360.498 177.64 360.914 177.928 361.49 177.928C361.938 177.928 362.418 177.8 362.93 177.544C363.442 177.224 363.922 176.872 364.37 176.488L365.33 178.12C362.578 180.488 358.642 181.672 353.522 181.672C349.682 181.672 346.994 181.032 345.458 179.752C343.922 178.408 343.09 176.616 342.962 174.376C339.954 179.24 335.474 181.672 329.522 181.672ZM339.122 173.992C340.466 173.992 341.65 173.448 342.674 172.36V152.104C342.098 153.064 341.042 154.312 339.506 155.848C337.778 157.512 336.466 159.144 335.57 160.744C334.674 162.28 334.226 164.392 334.226 167.08C334.226 171.688 335.858 173.992 339.122 173.992ZM386.378 131.176H395.786V133.096H386.378V172.936C386.378 174.216 386.602 175.112 387.05 175.624C387.498 176.136 388.234 176.392 389.258 176.392C390.026 176.392 390.89 176.168 391.85 175.72C392.81 175.272 393.674 174.568 394.442 173.608L395.882 174.76C392.938 179.816 388.394 182.344 382.25 182.344C377.834 182.344 374.538 181.256 372.362 179.08C371.018 177.736 370.122 176.072 369.674 174.088C369.29 172.104 369.098 169.32 369.098 165.736V133.096H361.802V131.176H369.098V119.848C372.554 119.848 375.658 119.528 378.41 118.888C381.226 118.184 383.882 117.096 386.378 115.624V131.176ZM414.226 131.176H423.634V133.096H414.226V172.936C414.226 174.216 414.45 175.112 414.898 175.624C415.346 176.136 416.082 176.392 417.106 176.392C417.874 176.392 418.738 176.168 419.698 175.72C420.658 175.272 421.522 174.568 422.29 173.608L423.73 174.76C420.786 179.816 416.242 182.344 410.098 182.344C405.682 182.344 402.386 181.256 400.21 179.08C398.866 177.736 397.97 176.072 397.522 174.088C397.138 172.104 396.946 169.32 396.946 165.736V133.096H389.65V131.176H396.946V119.848C400.402 119.848 403.506 119.528 406.258 118.888C409.074 118.184 411.73 117.096 414.226 115.624V131.176ZM446.842 129.832C454.714 129.832 460.794 131.912 465.082 136.072C469.37 140.168 471.514 146.856 471.514 156.136C471.514 165.416 469.37 172.104 465.082 176.2C460.794 180.296 454.714 182.344 446.842 182.344C438.97 182.344 432.89 180.296 428.602 176.2C424.314 172.104 422.17 165.416 422.17 156.136C422.17 146.856 424.314 140.168 428.602 136.072C432.89 131.912 438.97 129.832 446.842 129.832ZM446.842 131.752C444.794 131.752 443.162 133.768 441.946 137.8C440.73 141.832 440.122 147.944 440.122 156.136C440.122 164.328 440.73 170.44 441.946 174.472C443.162 178.44 444.794 180.424 446.842 180.424C448.89 180.424 450.522 178.44 451.738 174.472C452.954 170.44 453.562 164.328 453.562 156.136C453.562 147.944 452.954 141.832 451.738 137.8C450.522 133.768 448.89 131.752 446.842 131.752ZM523.274 170.536C523.274 173.48 523.658 175.624 524.426 176.968C525.258 178.312 526.666 178.984 528.65 178.984V181C526.666 180.808 524.682 180.712 522.698 180.712C516.042 180.712 510.474 181.16 505.994 182.056V175.144C503.114 179.944 498.026 182.344 490.73 182.344C485.61 182.344 481.994 181.064 479.882 178.504C478.922 177.352 478.218 175.816 477.77 173.896C477.322 171.912 477.098 169.32 477.098 166.12V141.64C477.098 138.696 476.682 136.552 475.85 135.208C475.082 133.864 473.706 133.192 471.722 133.192V131.176C473.706 131.368 475.69 131.464 477.674 131.464C484.33 131.464 489.898 131.016 494.378 130.12V171.304C494.378 173.352 494.73 174.888 495.434 175.912C496.202 176.872 497.418 177.352 499.082 177.352C500.938 177.352 502.538 176.712 503.882 175.432C505.29 174.088 505.994 172.424 505.994 170.44V141.64C505.994 138.696 505.578 136.552 504.746 135.208C503.978 133.864 502.602 133.192 500.618 133.192V131.176C502.602 131.368 504.586 131.464 506.57 131.464C513.226 131.464 518.794 131.016 523.274 130.12V170.536ZM548.721 129.832C551.217 129.832 553.553 130.12 555.729 130.696C557.969 131.208 559.665 131.784 560.817 132.424C561.521 132.808 562.097 133 562.545 133C563.889 133 564.689 131.976 564.945 129.928H566.865C566.609 133.256 566.481 139.016 566.481 147.208H564.561C564.049 142.984 562.833 139.432 560.913 136.552C559.057 133.608 556.337 132.136 552.753 132.136C551.153 132.136 549.809 132.616 548.721 133.576C547.633 134.536 547.089 135.848 547.089 137.512C547.089 139.624 547.793 141.512 549.201 143.176C550.609 144.776 552.817 146.76 555.825 149.128C555.953 149.192 556.881 149.928 558.609 151.336C562.193 154.28 564.817 156.904 566.481 159.208C568.145 161.448 568.977 164.232 568.977 167.56C568.977 170.376 568.113 172.936 566.385 175.24C564.657 177.48 562.289 179.24 559.281 180.52C556.337 181.736 553.105 182.344 549.585 182.344C545.553 182.344 542.257 181.544 539.697 179.944C538.609 179.368 537.713 178.952 537.009 178.696C536.305 178.44 535.601 178.312 534.897 178.312C533.681 178.312 532.785 179.432 532.209 181.672H530.289C530.545 178.024 530.673 171.624 530.673 162.472H532.593C533.169 167.72 534.577 171.944 536.817 175.144C539.057 178.344 541.873 179.944 545.265 179.944C546.865 179.944 548.177 179.496 549.201 178.6C550.289 177.704 550.833 176.392 550.833 174.664C550.833 172.872 550.449 171.272 549.681 169.864C548.977 168.456 548.081 167.208 546.993 166.12C545.969 164.968 544.273 163.336 541.905 161.224C539.217 158.728 537.169 156.744 535.761 155.272C534.353 153.8 533.137 152.104 532.113 150.184C531.153 148.2 530.673 146.024 530.673 143.656C530.673 140.904 531.505 138.472 533.169 136.36C534.833 134.248 537.041 132.648 539.793 131.56C542.545 130.408 545.521 129.832 548.721 129.832Z" fill="black"/>
<path d="M209.505 90.82V92.64L217.145 97.4L217.865 95.84L211.165 91.74L217.865 87.66L217.205 86.06L209.505 90.82ZM225.521 82.4C226.654 82.4 227.621 82.5467 228.421 82.84C229.221 83.12 229.867 83.5733 230.361 84.2C230.867 84.8133 231.234 85.6133 231.461 86.6C231.701 87.5733 231.821 88.7533 231.821 90.14C231.821 95.38 230.187 98 226.921 98H221.821V82.4H225.521ZM226.921 96.3C227.987 96.3 228.794 95.78 229.341 94.74C229.887 93.7 230.161 92.1667 230.161 90.14C230.161 88.0733 229.867 86.5667 229.281 85.62C228.694 84.66 227.774 84.18 226.521 84.18H223.521V96.3H226.921ZM239.516 84.58C240.343 84.58 240.756 84.16 240.756 83.32C240.756 82.4933 240.343 82.08 239.516 82.08C239.116 82.08 238.803 82.1867 238.576 82.4C238.363 82.6133 238.256 82.92 238.256 83.32C238.256 84.16 238.676 84.58 239.516 84.58ZM244.016 96.68V96.6H240.516L240.536 86.6H236.556V87.86L238.896 88V96.6H235.456V98H244.136C244.069 97.8 244.029 97.5867 244.016 97.36C244.016 97.1333 244.016 96.9067 244.016 96.68ZM255.871 86.6L252.491 95.34L249.371 86.6H247.571L251.611 98H253.311L257.671 86.6H255.871ZM282.102 94.96C281.849 95.5467 281.502 95.9733 281.062 96.24C280.635 96.4933 280.189 96.62 279.722 96.62C279.429 96.62 279.149 96.5733 278.882 96.48C278.615 96.3733 278.375 96.2133 278.162 96C277.962 95.7867 277.795 95.5267 277.662 95.22C277.542 94.9 277.482 94.5267 277.482 94.1V88.14H282.342V86.6H277.482V82.4L275.782 82.28V86.6H273.942V88.14H275.782V94.1C275.782 94.7667 275.889 95.36 276.102 95.88C276.329 96.4 276.629 96.84 277.002 97.2C277.375 97.56 277.795 97.8333 278.262 98.02C278.742 98.2067 279.235 98.3 279.742 98.3C280.489 98.3 281.215 98.0933 281.922 97.68C282.629 97.2667 283.195 96.5867 283.622 95.64L282.102 94.96ZM288.217 91.58C288.271 90.4067 288.537 89.48 289.017 88.8C289.511 88.12 290.304 87.78 291.397 87.78C292.517 87.78 293.337 88.1067 293.857 88.76C294.377 89.4133 294.604 90.3533 294.537 91.58H288.217ZM291.577 86.28C289.937 86.28 288.691 86.7867 287.837 87.8C286.997 88.8133 286.551 90.2467 286.497 92.1V93.12C286.497 93.88 286.624 94.58 286.877 95.22C287.131 95.8467 287.484 96.3933 287.937 96.86C288.404 97.3133 288.951 97.6667 289.577 97.92C290.217 98.1733 290.917 98.3 291.677 98.3C292.517 98.3 293.311 98.1333 294.057 97.8C294.804 97.4667 295.457 96.9933 296.017 96.38L294.997 95.14C294.357 95.7667 293.757 96.1933 293.197 96.42C292.651 96.6467 292.124 96.76 291.617 96.76C291.111 96.76 290.644 96.6733 290.217 96.5C289.804 96.3133 289.444 96.06 289.137 95.74C288.844 95.42 288.611 95.04 288.437 94.6C288.277 94.1467 288.197 93.6533 288.197 93.12L296.317 93.08L296.357 92.1C296.424 90.2333 296.051 88.8 295.237 87.8C294.424 86.7867 293.204 86.28 291.577 86.28ZM309.093 98L305.393 92.2L308.993 86.6H307.193L304.493 90.78L301.833 86.6H300.033L303.593 92.2L299.833 98H301.653L304.473 93.6L307.273 98H309.093ZM320.968 94.96C320.714 95.5467 320.368 95.9733 319.928 96.24C319.501 96.4933 319.054 96.62 318.588 96.62C318.294 96.62 318.014 96.5733 317.748 96.48C317.481 96.3733 317.241 96.2133 317.028 96C316.828 95.7867 316.661 95.5267 316.528 95.22C316.408 94.9 316.348 94.5267 316.348 94.1V88.14H321.208V86.6H316.348V82.4L314.648 82.28V86.6H312.808V88.14H314.648V94.1C314.648 94.7667 314.754 95.36 314.968 95.88C315.194 96.4 315.494 96.84 315.868 97.2C316.241 97.56 316.661 97.8333 317.128 98.02C317.608 98.2067 318.101 98.3 318.608 98.3C319.354 98.3 320.081 98.0933 320.788 97.68C321.494 97.2667 322.061 96.5867 322.488 95.64L320.968 94.96ZM335.443 82.4V83.8H331.143V98H329.443V83.8H325.283V82.4H335.443ZM347.958 88.48L349.018 86.82C348.698 86.7 348.425 86.6067 348.198 86.54C347.972 86.46 347.772 86.4 347.598 86.36C347.438 86.32 347.298 86.3 347.178 86.3C347.058 86.2867 346.945 86.28 346.838 86.28C346.625 86.28 346.358 86.3 346.038 86.34C345.718 86.3667 345.392 86.4333 345.058 86.54C344.738 86.6467 344.425 86.8133 344.118 87.04C343.812 87.2533 343.558 87.5533 343.358 87.94C343.358 87.8733 343.365 87.78 343.378 87.66C343.405 87.5267 343.432 87.3933 343.458 87.26C343.498 87.1133 343.532 86.98 343.558 86.86C343.598 86.74 343.638 86.6533 343.678 86.6H339.478V87.86L341.818 88V96.6H338.278V98H346.958C346.892 97.8 346.852 97.5867 346.838 97.36C346.838 97.1333 346.838 96.9067 346.838 96.68V96.6H343.458V90.06C343.605 89.4467 343.932 88.9533 344.438 88.58C344.958 88.2067 345.558 88.02 346.238 88.02C346.825 88.02 347.398 88.1733 347.958 88.48ZM355.494 96.84C354.814 96.84 354.227 96.6867 353.734 96.38C353.254 96.0733 353.014 95.6267 353.014 95.04C353.014 94.3333 353.42 93.8333 354.234 93.54C355.047 93.2333 356.327 93.08 358.074 93.08C358.274 93.08 358.48 93.08 358.694 93.08C358.907 93.08 359.127 93.0867 359.354 93.1V94.94C358.887 95.58 358.294 96.06 357.574 96.38C356.867 96.6867 356.174 96.84 355.494 96.84ZM355.874 86.28C355.034 86.28 354.24 86.4467 353.494 86.78C352.747 87.1133 352.094 87.5867 351.534 88.2L352.554 89.44C353.194 88.8133 353.787 88.3867 354.334 88.16C354.894 87.9333 355.427 87.82 355.934 87.82C356.44 87.82 356.9 87.9133 357.314 88.1C357.74 88.2733 358.1 88.52 358.394 88.84C358.7 89.16 358.934 89.5467 359.094 90C359.267 90.44 359.354 90.9333 359.354 91.48V91.62C359.14 91.6067 358.934 91.6 358.734 91.6C358.534 91.5867 358.34 91.58 358.154 91.58C353.567 91.58 351.274 92.7333 351.274 95.04C351.274 95.5733 351.387 96.04 351.614 96.44C351.854 96.84 352.174 97.18 352.574 97.46C352.987 97.7267 353.467 97.9267 354.014 98.06C354.574 98.2067 355.167 98.28 355.794 98.28C356.594 98.2667 357.314 98.1133 357.954 97.82C358.594 97.5133 359.06 97.1067 359.354 96.6C359.354 96.8667 359.3 97.1333 359.194 97.4C359.1 97.6667 359.007 97.8667 358.914 98H361.054V91.48C361.054 90.72 360.927 90.02 360.674 89.38C360.42 88.74 360.06 88.1933 359.594 87.74C359.14 87.2733 358.594 86.9133 357.954 86.66C357.327 86.4067 356.634 86.28 355.874 86.28ZM373.969 92.06C373.969 91.3533 373.889 90.6533 373.729 89.96C373.582 89.2667 373.336 88.6467 372.989 88.1C372.656 87.5533 372.229 87.1133 371.709 86.78C371.189 86.4467 370.556 86.28 369.809 86.28C369.462 86.28 369.109 86.32 368.749 86.4C368.402 86.48 368.076 86.5933 367.769 86.74C367.462 86.8867 367.182 87.06 366.929 87.26C366.689 87.46 366.502 87.6867 366.369 87.94C366.382 87.6867 366.436 87.4333 366.529 87.18C366.622 86.9133 366.716 86.72 366.809 86.6H364.669V98H366.369V89.76C366.622 89.2533 366.942 88.8333 367.329 88.5C367.729 88.1533 368.276 87.98 368.969 87.98C369.476 87.98 369.922 88.08 370.309 88.28C370.709 88.4667 371.042 88.7267 371.309 89.06C371.589 89.38 371.796 89.7667 371.929 90.22C372.076 90.66 372.149 91.1333 372.149 91.64V98H374.089C374.022 97.8 373.982 97.5867 373.969 97.36C373.969 97.1333 373.969 96.9067 373.969 96.68V92.06ZM382.864 91.48C381.758 91.2667 380.944 91.02 380.424 90.74C379.918 90.46 379.664 90.0867 379.664 89.62C379.664 89.1 379.944 88.6733 380.504 88.34C381.064 88.0067 381.784 87.84 382.664 87.84C383.291 87.84 383.831 87.9467 384.284 88.16C384.751 88.36 385.218 88.7133 385.684 89.22L386.764 88.14C386.338 87.54 385.758 87.08 385.024 86.76C384.291 86.44 383.444 86.28 382.484 86.28C381.818 86.28 381.211 86.36 380.664 86.52C380.131 86.68 379.671 86.9133 379.284 87.22C378.898 87.5133 378.598 87.8667 378.384 88.28C378.171 88.6933 378.064 89.1533 378.064 89.66C378.064 90.5533 378.424 91.2733 379.144 91.82C379.878 92.3667 381.071 92.8067 382.724 93.14C383.711 93.34 384.384 93.5467 384.744 93.76C385.118 93.9733 385.304 94.2733 385.304 94.66C385.304 94.94 385.224 95.2133 385.064 95.48C384.904 95.7333 384.691 95.96 384.424 96.16C384.158 96.3467 383.844 96.5 383.484 96.62C383.138 96.7267 382.771 96.78 382.384 96.78C381.704 96.78 381.064 96.6067 380.464 96.26C379.864 95.9 379.284 95.3933 378.724 94.74L377.584 95.9C378.184 96.7 378.871 97.3 379.644 97.7C380.431 98.1 381.338 98.3 382.364 98.3C383.058 98.3 383.684 98.2067 384.244 98.02C384.804 97.8467 385.278 97.6 385.664 97.28C386.064 96.9467 386.371 96.56 386.584 96.12C386.798 95.6667 386.904 95.1733 386.904 94.64C386.904 93.7733 386.591 93.1 385.964 92.62C385.338 92.1267 384.304 91.7467 382.864 91.48ZM396.98 83.76C397.446 83.76 397.893 83.8933 398.32 84.16C398.76 84.4133 399.106 84.8333 399.36 85.42L400.88 84.74C400.453 83.7933 399.886 83.1133 399.18 82.7C398.473 82.2867 397.746 82.08 397 82.08C396.493 82.08 396 82.1733 395.52 82.36C395.053 82.5467 394.633 82.82 394.26 83.18C393.886 83.54 393.586 83.98 393.36 84.5C393.146 85.02 393.04 85.6133 393.04 86.28V91.58H390.86V93.12H393.04V102L394.74 102.12V93.12H399.26V91.58H394.74V86.28C394.74 85.8533 394.8 85.4867 394.92 85.18C395.053 84.86 395.22 84.5933 395.42 84.38C395.633 84.1667 395.873 84.0133 396.14 83.92C396.406 83.8133 396.686 83.76 396.98 83.76ZM408.075 98.3C408.875 98.3 409.595 98.1533 410.235 97.86C410.888 97.5667 411.442 97.1533 411.895 96.62C412.362 96.0867 412.722 95.4467 412.975 94.7C413.228 93.94 413.355 93.1 413.355 92.18C413.355 91.2867 413.228 90.48 412.975 89.76C412.735 89.0267 412.382 88.4067 411.915 87.9C411.462 87.38 410.908 86.98 410.255 86.7C409.602 86.42 408.875 86.28 408.075 86.28C407.275 86.28 406.548 86.42 405.895 86.7C405.255 86.9667 404.708 87.3533 404.255 87.86C403.802 88.3667 403.448 88.9867 403.195 89.72C402.955 90.4533 402.835 91.2733 402.835 92.18C402.835 93.1133 402.955 93.96 403.195 94.72C403.448 95.4667 403.802 96.1067 404.255 96.64C404.722 97.1733 405.275 97.5867 405.915 97.88C406.555 98.16 407.275 98.3 408.075 98.3ZM408.075 96.84C407.062 96.84 406.268 96.4267 405.695 95.6C405.122 94.7733 404.835 93.6333 404.835 92.18C404.835 90.74 405.122 89.6333 405.695 88.86C406.268 88.0867 407.062 87.6933 408.075 87.68C409.128 87.6667 409.948 88.0467 410.535 88.82C411.122 89.5933 411.415 90.7133 411.415 92.18C411.415 93.66 411.122 94.8067 410.535 95.62C409.948 96.4333 409.128 96.84 408.075 96.84ZM425.69 88.48L426.75 86.82C426.43 86.7 426.157 86.6067 425.93 86.54C425.704 86.46 425.504 86.4 425.33 86.36C425.17 86.32 425.03 86.3 424.91 86.3C424.79 86.2867 424.677 86.28 424.57 86.28C424.357 86.28 424.09 86.3 423.77 86.34C423.45 86.3667 423.124 86.4333 422.79 86.54C422.47 86.6467 422.157 86.8133 421.85 87.04C421.544 87.2533 421.29 87.5533 421.09 87.94C421.09 87.8733 421.097 87.78 421.11 87.66C421.137 87.5267 421.164 87.3933 421.19 87.26C421.23 87.1133 421.264 86.98 421.29 86.86C421.33 86.74 421.37 86.6533 421.41 86.6H417.21V87.86L419.55 88V96.6H416.01V98H424.69C424.624 97.8 424.584 97.5867 424.57 97.36C424.57 97.1333 424.57 96.9067 424.57 96.68V96.6H421.19V90.06C421.337 89.4467 421.664 88.9533 422.17 88.58C422.69 88.2067 423.29 88.02 423.97 88.02C424.557 88.02 425.13 88.1733 425.69 88.48ZM436.866 86.28C436.212 86.28 435.732 86.42 435.426 86.7C435.132 86.9667 434.872 87.3933 434.646 87.98V88.08C434.459 87.5333 434.186 87.1 433.826 86.78C433.479 86.4467 433.026 86.28 432.466 86.28C431.986 86.28 431.599 86.38 431.306 86.58C431.026 86.78 430.772 87.1267 430.546 87.62V86.6H428.846V98H430.666C430.599 97.8 430.559 97.5867 430.546 97.36C430.546 97.1333 430.546 96.9067 430.546 96.68V89.44C430.786 88.9467 431.012 88.58 431.226 88.34C431.439 88.1 431.699 87.98 432.006 87.98C432.432 87.98 432.759 88.14 432.986 88.46C433.212 88.78 433.326 89.16 433.326 89.6V98H434.946V90.02C434.946 89.9133 434.946 89.8133 434.946 89.72C434.946 89.6133 434.939 89.5067 434.926 89.4C435.192 88.8 435.439 88.38 435.666 88.14C435.892 87.9 436.139 87.78 436.406 87.78C436.832 87.78 437.159 87.94 437.386 88.26C437.612 88.58 437.726 88.96 437.726 89.4V98H439.346V89.82C439.346 89.3133 439.312 88.8467 439.246 88.42C439.179 87.98 439.052 87.6067 438.866 87.3C438.679 86.98 438.426 86.7333 438.106 86.56C437.786 86.3733 437.372 86.28 436.866 86.28ZM450.861 90.56L450.981 88.96H443.041L442.921 90.56H450.861ZM450.861 94.7L450.981 93.1H443.041L442.921 94.7H450.861ZM461.644 80.864C461.42 81.792 461.196 82.8 460.972 83.888C460.748 84.96 460.572 85.912 460.444 86.744H458.164L457.996 86.48C458.22 85.632 458.524 84.704 458.908 83.696C459.292 82.672 459.684 81.728 460.084 80.864H461.644ZM457.204 80.864C456.98 81.792 456.756 82.8 456.532 83.888C456.308 84.96 456.132 85.912 456.004 86.744H453.748L453.604 86.48C453.828 85.632 454.124 84.704 454.492 83.696C454.876 82.672 455.268 81.728 455.668 80.864H457.204ZM471.321 94.42C471.175 95.18 470.841 95.7533 470.321 96.14C469.801 96.5133 469.121 96.7 468.281 96.7C467.215 96.7 466.408 96.36 465.861 95.68C465.315 95 465.041 93.9933 465.041 92.66C465.041 91.18 465.301 90.0133 465.821 89.16C466.341 88.3067 467.161 87.88 468.281 87.88C468.948 87.88 469.548 88.06 470.081 88.42C470.628 88.78 471.001 89.2933 471.201 89.96L473.081 89.42C472.935 88.9533 472.701 88.5267 472.381 88.14C472.075 87.7533 471.708 87.4267 471.281 87.16C470.855 86.88 470.381 86.6667 469.861 86.52C469.355 86.36 468.828 86.28 468.281 86.28C467.415 86.28 466.661 86.4467 466.021 86.78C465.381 87.1 464.848 87.5467 464.421 88.12C463.995 88.68 463.675 89.3533 463.461 90.14C463.248 90.9133 463.141 91.7533 463.141 92.66C463.141 94.4467 463.581 95.8333 464.461 96.82C465.355 97.7933 466.628 98.28 468.281 98.28C468.935 98.28 469.541 98.1933 470.101 98.02C470.661 97.86 471.155 97.6267 471.581 97.32C472.021 97 472.388 96.62 472.681 96.18C472.975 95.74 473.175 95.2467 473.281 94.7L471.321 94.42ZM480.477 96.84C479.797 96.84 479.21 96.6867 478.717 96.38C478.237 96.0733 477.997 95.6267 477.997 95.04C477.997 94.3333 478.403 93.8333 479.217 93.54C480.03 93.2333 481.31 93.08 483.057 93.08C483.257 93.08 483.463 93.08 483.677 93.08C483.89 93.08 484.11 93.0867 484.337 93.1V94.94C483.87 95.58 483.277 96.06 482.557 96.38C481.85 96.6867 481.157 96.84 480.477 96.84ZM480.857 86.28C480.017 86.28 479.223 86.4467 478.477 86.78C477.73 87.1133 477.077 87.5867 476.517 88.2L477.537 89.44C478.177 88.8133 478.77 88.3867 479.317 88.16C479.877 87.9333 480.41 87.82 480.917 87.82C481.423 87.82 481.883 87.9133 482.297 88.1C482.723 88.2733 483.083 88.52 483.377 88.84C483.683 89.16 483.917 89.5467 484.077 90C484.25 90.44 484.337 90.9333 484.337 91.48V91.62C484.123 91.6067 483.917 91.6 483.717 91.6C483.517 91.5867 483.323 91.58 483.137 91.58C478.55 91.58 476.257 92.7333 476.257 95.04C476.257 95.5733 476.37 96.04 476.597 96.44C476.837 96.84 477.157 97.18 477.557 97.46C477.97 97.7267 478.45 97.9267 478.997 98.06C479.557 98.2067 480.15 98.28 480.777 98.28C481.577 98.2667 482.297 98.1133 482.937 97.82C483.577 97.5133 484.043 97.1067 484.337 96.6C484.337 96.8667 484.283 97.1333 484.177 97.4C484.083 97.6667 483.99 97.8667 483.897 98H486.037V91.48C486.037 90.72 485.91 90.02 485.657 89.38C485.403 88.74 485.043 88.1933 484.577 87.74C484.123 87.2733 483.577 86.9133 482.937 86.66C482.31 86.4067 481.617 86.28 480.857 86.28ZM494.132 96.66C493.279 96.66 492.592 96.52 492.072 96.24C491.565 95.96 491.179 95.5133 490.912 94.9V90.04C491.285 89.32 491.765 88.7667 492.352 88.38C492.952 87.98 493.612 87.78 494.332 87.78C494.839 87.78 495.299 87.88 495.712 88.08C496.125 88.28 496.479 88.5667 496.772 88.94C497.065 89.3 497.292 89.74 497.452 90.26C497.612 90.7667 497.692 91.34 497.692 91.98C497.692 92.66 497.605 93.2867 497.432 93.86C497.259 94.4333 497.012 94.9267 496.692 95.34C496.372 95.7533 495.992 96.08 495.552 96.32C495.125 96.5467 494.652 96.66 494.132 96.66ZM494.332 86.28C493.572 86.28 492.919 86.42 492.372 86.7C491.825 86.98 491.339 87.4267 490.912 88.04V88C490.912 87.7333 490.959 87.4667 491.052 87.2C491.159 86.9333 491.259 86.7333 491.352 86.6H489.212V102.12L490.912 102V97.14C491.779 97.9 492.852 98.28 494.132 98.28C494.919 98.28 495.632 98.1333 496.272 97.84C496.925 97.5333 497.479 97.1067 497.932 96.56C498.399 96 498.759 95.3333 499.012 94.56C499.265 93.7867 499.392 92.9267 499.392 91.98C499.392 90.1667 498.952 88.7667 498.072 87.78C497.192 86.78 495.945 86.28 494.332 86.28ZM507.007 84.58C507.834 84.58 508.247 84.16 508.247 83.32C508.247 82.4933 507.834 82.08 507.007 82.08C506.607 82.08 506.294 82.1867 506.067 82.4C505.854 82.6133 505.747 82.92 505.747 83.32C505.747 84.16 506.167 84.58 507.007 84.58ZM511.507 96.68V96.6H508.007L508.027 86.6H504.047V87.86L506.387 88V96.6H502.947V98H511.627C511.561 97.8 511.521 97.5867 511.507 97.36C511.507 97.1333 511.507 96.9067 511.507 96.68ZM523.682 94.96C523.429 95.5467 523.082 95.9733 522.642 96.24C522.216 96.4933 521.769 96.62 521.302 96.62C521.009 96.62 520.729 96.5733 520.462 96.48C520.196 96.3733 519.956 96.2133 519.742 96C519.542 95.7867 519.376 95.5267 519.242 95.22C519.122 94.9 519.062 94.5267 519.062 94.1V88.14H523.922V86.6H519.062V82.4L517.362 82.28V86.6H515.522V88.14H517.362V94.1C517.362 94.7667 517.469 95.36 517.682 95.88C517.909 96.4 518.209 96.84 518.582 97.2C518.956 97.56 519.376 97.8333 519.842 98.02C520.322 98.2067 520.816 98.3 521.322 98.3C522.069 98.3 522.796 98.0933 523.502 97.68C524.209 97.2667 524.776 96.5867 525.202 95.64L523.682 94.96ZM532.298 96.84C531.618 96.84 531.031 96.6867 530.538 96.38C530.058 96.0733 529.818 95.6267 529.818 95.04C529.818 94.3333 530.224 93.8333 531.038 93.54C531.851 93.2333 533.131 93.08 534.878 93.08C535.078 93.08 535.284 93.08 535.498 93.08C535.711 93.08 535.931 93.0867 536.158 93.1V94.94C535.691 95.58 535.098 96.06 534.378 96.38C533.671 96.6867 532.978 96.84 532.298 96.84ZM532.678 86.28C531.838 86.28 531.044 86.4467 530.298 86.78C529.551 87.1133 528.898 87.5867 528.338 88.2L529.358 89.44C529.998 88.8133 530.591 88.3867 531.138 88.16C531.698 87.9333 532.231 87.82 532.738 87.82C533.244 87.82 533.704 87.9133 534.118 88.1C534.544 88.2733 534.904 88.52 535.198 88.84C535.504 89.16 535.738 89.5467 535.898 90C536.071 90.44 536.158 90.9333 536.158 91.48V91.62C535.944 91.6067 535.738 91.6 535.538 91.6C535.338 91.5867 535.144 91.58 534.958 91.58C530.371 91.58 528.078 92.7333 528.078 95.04C528.078 95.5733 528.191 96.04 528.418 96.44C528.658 96.84 528.978 97.18 529.378 97.46C529.791 97.7267 530.271 97.9267 530.818 98.06C531.378 98.2067 531.971 98.28 532.598 98.28C533.398 98.2667 534.118 98.1133 534.758 97.82C535.398 97.5133 535.864 97.1067 536.158 96.6C536.158 96.8667 536.104 97.1333 535.998 97.4C535.904 97.6667 535.811 97.8667 535.718 98H537.858V91.48C537.858 90.72 537.731 90.02 537.478 89.38C537.224 88.74 536.864 88.1933 536.398 87.74C535.944 87.2733 535.398 86.9133 534.758 86.66C534.131 86.4067 533.438 86.28 532.678 86.28ZM550.293 96.68V96.6H546.893V82.4H542.853V83.66L545.193 83.8V96.6H541.733V98H550.413C550.346 97.8 550.306 97.5867 550.293 97.36C550.293 97.1333 550.293 96.9067 550.293 96.68ZM558.828 84.58C559.655 84.58 560.068 84.16 560.068 83.32C560.068 82.4933 559.655 82.08 558.828 82.08C558.428 82.08 558.115 82.1867 557.888 82.4C557.675 82.6133 557.568 82.92 557.568 83.32C557.568 84.16 557.988 84.58 558.828 84.58ZM563.328 96.68V96.6H559.828L559.848 86.6H555.868V87.86L558.208 88V96.6H554.768V98H563.448C563.382 97.8 563.342 97.5867 563.328 97.36C563.328 97.1333 563.328 96.9067 563.328 96.68ZM576.164 96.68V96.6H569.384L576.084 88V86.6H567.864V88H574.324L567.604 96.6V98H576.284C576.217 97.8 576.177 97.5867 576.164 97.36C576.164 97.1333 576.164 96.9067 576.164 96.68ZM581.619 91.58C581.672 90.4067 581.939 89.48 582.419 88.8C582.912 88.12 583.706 87.78 584.799 87.78C585.919 87.78 586.739 88.1067 587.259 88.76C587.779 89.4133 588.006 90.3533 587.939 91.58H581.619ZM584.979 86.28C583.339 86.28 582.092 86.7867 581.239 87.8C580.399 88.8133 579.952 90.2467 579.899 92.1V93.12C579.899 93.88 580.026 94.58 580.279 95.22C580.532 95.8467 580.886 96.3933 581.339 96.86C581.806 97.3133 582.352 97.6667 582.979 97.92C583.619 98.1733 584.319 98.3 585.079 98.3C585.919 98.3 586.712 98.1333 587.459 97.8C588.206 97.4667 588.859 96.9933 589.419 96.38L588.399 95.14C587.759 95.7667 587.159 96.1933 586.599 96.42C586.052 96.6467 585.526 96.76 585.019 96.76C584.512 96.76 584.046 96.6733 583.619 96.5C583.206 96.3133 582.846 96.06 582.539 95.74C582.246 95.42 582.012 95.04 581.839 94.6C581.679 94.1467 581.599 93.6533 581.599 93.12L589.719 93.08L589.759 92.1C589.826 90.2333 589.452 88.8 588.639 87.8C587.826 86.7867 586.606 86.28 584.979 86.28ZM599.414 80.864L599.582 81.128C599.374 81.976 599.07 82.912 598.67 83.936C598.286 84.96 597.902 85.896 597.518 86.744H595.934C596.094 86.136 596.246 85.488 596.39 84.8C596.55 84.096 596.694 83.408 596.822 82.736C596.966 82.048 597.078 81.424 597.158 80.864H599.414ZM594.974 80.864L595.142 81.128C594.934 81.976 594.63 82.912 594.23 83.936C593.846 84.96 593.462 85.896 593.078 86.744H591.542C591.702 86.136 591.854 85.488 591.998 84.8C592.142 84.096 592.278 83.408 592.406 82.736C592.534 82.048 592.638 81.424 592.718 80.864H594.974ZM610.499 90.82L602.799 86.06L602.139 87.66L608.839 91.74L602.139 95.84L602.859 97.4L610.499 92.64V90.82Z" fill="black"/>
<path d="M373.354 218.82V220.64L380.994 225.4L381.714 223.84L375.014 219.74L381.714 215.66L381.054 214.06L373.354 218.82ZM395.749 209.94L394.509 209.18L385.409 227.96L386.629 228.74L395.749 209.94ZM402.325 210.4C403.458 210.4 404.425 210.547 405.225 210.84C406.025 211.12 406.671 211.573 407.165 212.2C407.671 212.813 408.038 213.613 408.265 214.6C408.505 215.573 408.625 216.753 408.625 218.14C408.625 223.38 406.991 226 403.725 226H398.625V210.4H402.325ZM403.725 224.3C404.791 224.3 405.598 223.78 406.145 222.74C406.691 221.7 406.965 220.167 406.965 218.14C406.965 216.073 406.671 214.567 406.085 213.62C405.498 212.66 404.578 212.18 403.325 212.18H400.325V224.3H403.725ZM416.32 212.58C417.147 212.58 417.56 212.16 417.56 211.32C417.56 210.493 417.147 210.08 416.32 210.08C415.92 210.08 415.607 210.187 415.38 210.4C415.167 210.613 415.06 210.92 415.06 211.32C415.06 212.16 415.48 212.58 416.32 212.58ZM420.82 224.68V224.6H417.32L417.34 214.6H413.36V215.86L415.7 216V224.6H412.26V226H420.94C420.873 225.8 420.833 225.587 420.82 225.36C420.82 225.133 420.82 224.907 420.82 224.68ZM432.675 214.6L429.295 223.34L426.175 214.6H424.375L428.415 226H430.115L434.475 214.6H432.675ZM446.651 218.82L438.951 214.06L438.291 215.66L444.991 219.74L438.291 223.84L439.011 225.4L446.651 220.64V218.82Z" fill="black"/>
</svg>
